#define bullet_width 4
#define bullet_height 4
static unsigned char bullet_bits[] = {
   0x07, 0x0a, 0x0a, 0x07 };
