#define shade_width 4
#define shade_height 4
static unsigned char max_bits[] = {
   0x00, 0x0f, 0x0f, 0x00 };
